<?xml version="1.0" encoding="utf-8"?>
<svg xmlns="http://www.w3.org/2000/svg" viewBox="0 0 26 26" width="52" height="52">
  <path d="M13 0C5.820313 0 0 5.148438 0 11.5C0 14.757813 1.535156 17.691406 3.996094 19.785156C3.320313 22.648438 -0.101563 23.828125 0.121094 24.640625C2.289063 25.886719 8.113281 23.511719 10.007813 22.679688C10.96875 22.882813 11.96875 23 13 23C20.179688 23 26 17.851563 26 11.5C26 5.148438 20.179688 0 13 0 Z M 14.925781 17.414063C14.4375 17.617188 13.300781 18.140625 12.253906 18.140625C11.285156 18.140625 9.964844 17.695313 9.964844 16.265625C9.964844 14.609375 11.136719 12.25 11.136719 10.882813C11.136719 9.359375 9.15625 10.183594 9.011719 10.238281L9.210938 9.425781C9.699219 9.226563 10.859375 8.699219 11.886719 8.699219C12.71875 8.699219 14.136719 9 14.136719 10.574219C14.136719 12.15625 12.964844 14.6875 12.964844 15.957031C12.964844 16.308594 12.917969 16.863281 14.011719 16.863281C14.4375 16.863281 15.023438 16.648438 15.128906 16.601563 Z M 13.539063 7.195313C12.832031 7.195313 11.757813 6.710938 11.757813 5.539063C11.757813 4.351563 12.902344 3.871094 13.539063 3.871094C14.292969 3.871094 15.316406 4.421875 15.316406 5.539063C15.316406 6.214844 14.785156 7.195313 13.539063 7.195313Z" fill="#FFFFFF" />
</svg>